<?xml version="1.0" encoding="UTF-8" standalone="no"?>
<!DOCTYPE svg PUBLIC "-//W3C//DTD SVG 1.1//EN" "http://www.w3.org/Graphics/SVG/1.1/DTD/svg11.dtd">
<svg width="100%" height="100%" viewBox="0 0 1000 1000" version="1.1" xmlns="http://www.w3.org/2000/svg" xmlns:xlink="http://www.w3.org/1999/xlink" xml:space="preserve" xmlns:serif="http://www.serif.com/" style="fill-rule:evenodd;clip-rule:evenodd;stroke-linejoin:round;stroke-miterlimit:1.41421;">
    <g transform="matrix(1.56218,0,0,1.56218,-614.966,-249.747)">
        <circle cx="713.723" cy="479.935" r="320.065" style="fill:rgb(0,126,255);"/>
    </g>
    <g transform="matrix(1.56218,0,0,1.56218,-499.798,-124.874)">
        <clipPath id="_clip1">
            <circle cx="640" cy="400" r="320.065"/>
        </clipPath>
        <g clip-path="url(#_clip1)">
            <g>
                <g transform="matrix(1,0,0,1,-28.1547,-44.5798)">
                    <path d="M514.018,409.432C514.018,386.506 495.405,367.893 472.479,367.893L292.911,367.893C269.985,367.893 251.372,386.506 251.372,409.432C251.372,432.358 269.985,450.971 292.911,450.971L472.479,450.971C495.405,450.971 514.018,432.358 514.018,409.432Z" style="fill:rgb(29,234,74);"/>
                </g>
                <g transform="matrix(1.28728,0,0,1.28728,-35.2198,-46.6865)">
                    <path d="M514.018,409.432C514.018,386.506 495.405,367.893 472.479,367.893L292.911,367.893C269.985,367.893 251.372,386.506 251.372,409.432C251.372,432.358 269.985,450.971 292.911,450.971L472.479,450.971C495.405,450.971 514.018,432.358 514.018,409.432Z" style="fill:rgb(29,234,74);"/>
                </g>
                <g transform="matrix(2.45856,0,0,1.34315,-1505.58,91.7047)">
                    <rect x="756.587" y="209.324" width="36.437" height="60.011" style="fill:rgb(29,234,74);"/>
                </g>
                <g transform="matrix(1,0,0,1.05135,-348.123,170.457)">
                    <path d="M730.484,234.161C730.484,228.78 725.89,224.411 720.232,224.411L685.095,224.411C679.437,224.411 674.844,228.78 674.844,234.161C674.844,239.543 679.437,243.912 685.095,243.912L720.232,243.912C725.89,243.912 730.484,239.543 730.484,234.161Z" style="fill:rgb(0,126,255);"/>
                </g>
                <g transform="matrix(1,0,0,1.05135,-253.699,170.457)">
                    <path d="M730.484,234.161C730.484,228.78 725.89,224.411 720.232,224.411L685.095,224.411C679.437,224.411 674.844,228.78 674.844,234.161C674.844,239.543 679.437,243.912 685.095,243.912L720.232,243.912C725.89,243.912 730.484,239.543 730.484,234.161Z" style="fill:rgb(0,126,255);"/>
                </g>
            </g>
            <g>
                <g transform="matrix(1,0,0,1,446.047,-222.626)">
                    <path d="M514.018,409.432C514.018,386.506 495.405,367.893 472.479,367.893L292.911,367.893C269.985,367.893 251.372,386.506 251.372,409.432C251.372,432.358 269.985,450.971 292.911,450.971L472.479,450.971C495.405,450.971 514.018,432.358 514.018,409.432Z" style="fill:rgb(29,234,74);"/>
                </g>
                <g transform="matrix(1.2027,0,0,0.783701,236.974,-44.4059)">
                    <path d="M514.018,409.432C514.018,386.506 501.889,367.893 486.95,367.893L278.44,367.893C263.501,367.893 251.372,386.506 251.372,409.432C251.372,432.358 263.501,450.971 278.44,450.971L486.95,450.971C501.889,450.971 514.018,432.358 514.018,409.432Z" style="fill:rgb(29,234,74);"/>
                </g>
                <g transform="matrix(1.60828,0,0,1.25177,-466.66,-67.7138)">
                    <rect x="756.587" y="209.324" width="36.437" height="60.011" style="fill:rgb(29,234,74);"/>
                </g>
                <g transform="matrix(1,0,0,0.798283,38.0028,49.2013)">
                    <path d="M730.484,234.161C730.484,228.78 726.996,224.411 722.7,224.411L682.627,224.411C678.331,224.411 674.844,228.78 674.844,234.161C674.844,239.543 678.331,243.912 682.627,243.912L722.7,243.912C726.996,243.912 730.484,239.543 730.484,234.161Z" style="fill:rgb(0,126,255);"/>
                </g>
                <g transform="matrix(1,0,0,0.798283,126.078,49.2013)">
                    <path d="M730.484,234.161C730.484,228.78 726.996,224.411 722.7,224.411L682.627,224.411C678.331,224.411 674.844,228.78 674.844,234.161C674.844,239.543 678.331,243.912 682.627,243.912L722.7,243.912C726.996,243.912 730.484,239.543 730.484,234.161Z" style="fill:rgb(0,126,255);"/>
                </g>
            </g>
            <g>
                <g transform="matrix(1.70118,0,0,1.66923,298.099,-256.543)">
                    <path d="M514.018,409.432C514.018,386.506 495.754,367.893 473.259,367.893L292.131,367.893C269.636,367.893 251.372,386.506 251.372,409.432C251.372,432.358 269.636,450.971 292.131,450.971L473.259,450.971C495.754,450.971 514.018,432.358 514.018,409.432Z" style="fill:rgb(29,234,74);"/>
                </g>
                <g transform="matrix(1.94183,0,0,1.66463,106.46,-78.5672)">
                    <path d="M514.018,409.432C514.018,386.506 498.062,367.893 478.408,367.893L286.981,367.893C267.328,367.893 251.372,386.506 251.372,409.432C251.372,432.358 267.328,450.971 286.981,450.971L478.408,450.971C498.062,450.971 514.018,432.358 514.018,409.432Z" style="fill:rgb(29,234,74);"/>
                </g>
                <g transform="matrix(3.71549,0,0,1.25177,-2023.24,218.34)">
                    <rect x="756.587" y="209.324" width="36.437" height="60.011" style="fill:rgb(29,234,74);"/>
                </g>
                <g transform="matrix(1.44857,0,0,1.9284,-230.549,63.4779)">
                    <path d="M730.484,234.161C730.484,228.78 724.667,224.411 717.503,224.411L687.824,224.411C680.66,224.411 674.844,228.78 674.844,234.161C674.844,239.543 680.66,243.912 687.824,243.912L717.503,243.912C724.667,243.912 730.484,239.543 730.484,234.161Z" style="fill:rgb(0,126,255);"/>
                </g>
                <g transform="matrix(1.44857,0,0,1.9284,-94.6291,63.4779)">
                    <path d="M730.484,234.161C730.484,228.78 724.667,224.411 717.503,224.411L687.824,224.411C680.66,224.411 674.844,228.78 674.844,234.161C674.844,239.543 680.66,243.912 687.824,243.912L717.503,243.912C724.667,243.912 730.484,239.543 730.484,234.161Z" style="fill:rgb(0,126,255);"/>
                </g>
            </g>
            <g transform="matrix(0.659579,0,0,1.10279,10.8458,-81.6659)">
                <path d="M766.738,242.639C766.738,223.969 741.395,208.811 710.179,208.811L525.175,208.811C493.96,208.811 468.616,223.969 468.616,242.639C468.616,261.309 493.96,276.466 525.175,276.466L710.179,276.466C741.395,276.466 766.738,261.309 766.738,242.639Z" style="fill:rgb(29,234,74);"/>
            </g>
            <g transform="matrix(0.41663,0,0,0.685402,406.282,-21.618)">
                <path d="M766.738,242.639C766.738,223.969 741.802,208.811 711.087,208.811L524.267,208.811C493.552,208.811 468.616,223.969 468.616,242.639C468.616,261.309 493.552,276.466 524.267,276.466L711.087,276.466C741.802,276.466 766.738,261.309 766.738,242.639Z" style="fill:white;"/>
            </g>
            <g>
                <g transform="matrix(0.461897,0,0,0.857251,125.835,6.91108)">
                    <path d="M766.738,242.639C766.738,223.969 738.606,208.811 703.956,208.811L531.398,208.811C496.748,208.811 468.616,223.969 468.616,242.639C468.616,261.309 496.748,276.466 531.398,276.466L703.956,276.466C738.606,276.466 766.738,261.309 766.738,242.639Z" style="fill:white;"/>
                </g>
                <g transform="matrix(0.361681,0,0,0.493853,224.48,122.458)">
                    <path d="M766.738,242.639C766.738,223.969 746.041,208.811 720.548,208.811L514.806,208.811C489.313,208.811 468.616,223.969 468.616,242.639C468.616,261.309 489.313,276.466 514.806,276.466L720.548,276.466C746.041,276.466 766.738,261.309 766.738,242.639Z" style="fill:white;"/>
                </g>
                <g transform="matrix(0.169363,0,0,0.357745,428.05,160.087)">
                    <path d="M766.738,242.639C766.738,223.969 734.72,208.811 695.284,208.811L540.071,208.811C500.634,208.811 468.616,223.969 468.616,242.639C468.616,261.309 500.634,276.466 540.071,276.466L695.284,276.466C734.72,276.466 766.738,261.309 766.738,242.639Z" style="fill:white;"/>
                </g>
                <g transform="matrix(0.117074,0,0,0.357745,508.234,160.087)">
                    <path d="M766.738,242.639C766.738,223.969 720.42,208.811 663.37,208.811L571.984,208.811C514.934,208.811 468.616,223.969 468.616,242.639C468.616,261.309 514.934,276.466 571.984,276.466L663.37,276.466C720.42,276.466 766.738,261.309 766.738,242.639Z" style="fill:white;"/>
                </g>
            </g>
            <g>
                <g transform="matrix(0.535665,0,0,0.627368,298.72,226.554)">
                    <path d="M766.738,242.639C766.738,223.969 748.985,208.811 727.119,208.811L508.235,208.811C486.369,208.811 468.616,223.969 468.616,242.639C468.616,261.309 486.369,276.466 508.235,276.466L727.119,276.466C748.985,276.466 766.738,261.309 766.738,242.639Z" style="fill:white;"/>
                </g>
                <g transform="matrix(0.289584,0,0,0.416136,470.17,249.163)">
                    <path d="M766.738,242.639C766.738,223.969 744.956,208.811 718.127,208.811L517.227,208.811C490.398,208.811 468.616,223.969 468.616,242.639C468.616,261.309 490.398,276.466 517.227,276.466L718.127,276.466C744.956,276.466 766.738,261.309 766.738,242.639Z" style="fill:white;"/>
                </g>
            </g>
            <g>
                <g transform="matrix(0.454946,0,0,0.614033,244.22,331.378)">
                    <path d="M766.738,242.639C766.738,223.969 746.28,208.811 721.081,208.811L514.273,208.811C489.075,208.811 468.616,223.969 468.616,242.639C468.616,261.309 489.075,276.466 514.273,276.466L721.081,276.466C746.28,276.466 766.738,261.309 766.738,242.639Z" style="fill:white;"/>
                </g>
                <g transform="matrix(0.420658,0,0,0.614033,349.321,310.606)">
                    <path d="M766.738,242.639C766.738,223.969 744.612,208.811 717.359,208.811L517.995,208.811C490.742,208.811 468.616,223.969 468.616,242.639C468.616,261.309 490.742,276.466 517.995,276.466L717.359,276.466C744.612,276.466 766.738,261.309 766.738,242.639Z" style="fill:white;"/>
                </g>
                <g transform="matrix(0.102729,0,0,0.376073,371.933,381.066)">
                    <path d="M766.738,242.639C766.738,223.969 711.248,208.811 642.9,208.811L592.454,208.811C524.106,208.811 468.616,223.969 468.616,242.639C468.616,261.309 524.106,276.466 592.454,276.466L642.9,276.466C711.248,276.466 766.738,261.309 766.738,242.639Z" style="fill:white;"/>
                </g>
            </g>
            <g>
                <g transform="matrix(0.156517,0,0,0.376073,703.526,348.365)">
                    <path d="M766.738,242.639C766.738,223.969 730.317,208.811 685.458,208.811L549.896,208.811C505.037,208.811 468.616,223.969 468.616,242.639C468.616,261.309 505.037,276.466 549.896,276.466L685.458,276.466C730.317,276.466 766.738,261.309 766.738,242.639Z" style="fill:white;"/>
                </g>
                <g transform="matrix(0.102729,0,0,0.376073,690.894,348.365)">
                    <path d="M766.738,242.639C766.738,223.969 711.248,208.811 642.9,208.811L592.454,208.811C524.106,208.811 468.616,223.969 468.616,242.639C468.616,261.309 524.106,276.466 592.454,276.466L642.9,276.466C711.248,276.466 766.738,261.309 766.738,242.639Z" style="fill:white;"/>
                </g>
                <g transform="matrix(0.714956,0,0,0.752147,497.587,244.394)">
                    <path d="M766.738,242.639C766.738,223.969 750.792,208.811 731.15,208.811L504.204,208.811C484.563,208.811 468.616,223.969 468.616,242.639C468.616,261.309 484.563,276.466 504.204,276.466L731.15,276.466C750.792,276.466 766.738,261.309 766.738,242.639Z" style="fill:white;"/>
                </g>
            </g>
            <g>
                <g transform="matrix(0.318781,0,0,0.463656,612.552,481.735)">
                    <path d="M766.738,242.639C766.738,223.969 744.691,208.811 717.537,208.811L517.818,208.811C490.663,208.811 468.616,223.969 468.616,242.639C468.616,261.309 490.663,276.466 517.818,276.466L717.537,276.466C744.691,276.466 766.738,261.309 766.738,242.639Z" style="fill:white;"/>
                </g>
                <g transform="matrix(0.117074,0,0,0.357745,754.593,486.369)">
                    <path d="M766.738,242.639C766.738,223.969 720.42,208.811 663.37,208.811L571.984,208.811C514.934,208.811 468.616,223.969 468.616,242.639C468.616,261.309 514.934,276.466 571.984,276.466L663.37,276.466C720.42,276.466 766.738,261.309 766.738,242.639Z" style="fill:white;"/>
                </g>
            </g>
            <g>
                <g transform="matrix(0.44755,0,0,0.568599,141.114,474.054)">
                    <path d="M766.738,242.639C766.738,223.969 747.48,208.811 723.761,208.811L511.594,208.811C487.874,208.811 468.616,223.969 468.616,242.639C468.616,261.309 487.874,276.466 511.594,276.466L723.761,276.466C747.48,276.466 766.738,261.309 766.738,242.639Z" style="fill:white;"/>
                </g>
                <g transform="matrix(0.44755,0,0,0.568599,190.275,454.819)">
                    <path d="M766.738,242.639C766.738,223.969 747.48,208.811 723.761,208.811L511.594,208.811C487.874,208.811 468.616,223.969 468.616,242.639C468.616,261.309 487.874,276.466 511.594,276.466L723.761,276.466C747.48,276.466 766.738,261.309 766.738,242.639Z" style="fill:white;"/>
                </g>
                <g transform="matrix(0.165243,0,0,0.357745,459.969,498.848)">
                    <path d="M766.738,242.639C766.738,223.969 733.922,208.811 693.502,208.811L541.852,208.811C501.432,208.811 468.616,223.969 468.616,242.639C468.616,261.309 501.432,276.466 541.852,276.466L693.502,276.466C733.922,276.466 766.738,261.309 766.738,242.639Z" style="fill:white;"/>
                </g>
                <g transform="matrix(0.117074,0,0,0.357745,536.368,498.848)">
                    <path d="M766.738,242.639C766.738,223.969 720.42,208.811 663.37,208.811L571.984,208.811C514.934,208.811 468.616,223.969 468.616,242.639C468.616,261.309 514.934,276.466 571.984,276.466L663.37,276.466C720.42,276.466 766.738,261.309 766.738,242.639Z" style="fill:white;"/>
                </g>
            </g>
            <g>
                <g transform="matrix(0.169363,0,0,0.357745,621.95,556.075)">
                    <path d="M766.738,242.639C766.738,223.969 734.72,208.811 695.284,208.811L540.071,208.811C500.634,208.811 468.616,223.969 468.616,242.639C468.616,261.309 500.634,276.466 540.071,276.466L695.284,276.466C734.72,276.466 766.738,261.309 766.738,242.639Z" style="fill:white;"/>
                </g>
                <g transform="matrix(0.117074,0,0,0.357745,606.738,556.075)">
                    <path d="M766.738,242.639C766.738,223.969 720.42,208.811 663.37,208.811L571.984,208.811C514.934,208.811 468.616,223.969 468.616,242.639C468.616,261.309 514.934,276.466 571.984,276.466L663.37,276.466C720.42,276.466 766.738,261.309 766.738,242.639Z" style="fill:white;"/>
                </g>
            </g>
            <g>
                <g transform="matrix(0.3044,0,0,0.583056,635.211,154.718)">
                    <path d="M766.738,242.639C766.738,223.969 737.704,208.811 701.943,208.811L533.411,208.811C497.65,208.811 468.616,223.969 468.616,242.639C468.616,261.309 497.65,276.466 533.411,276.466L701.943,276.466C737.704,276.466 766.738,261.309 766.738,242.639Z" style="fill:white;"/>
                </g>
                <g transform="matrix(0.117074,0,0,0.357745,819.074,217.009)">
                    <path d="M766.738,242.639C766.738,223.969 720.42,208.811 663.37,208.811L571.984,208.811C514.934,208.811 468.616,223.969 468.616,242.639C468.616,261.309 514.934,276.466 571.984,276.466L663.37,276.466C720.42,276.466 766.738,261.309 766.738,242.639Z" style="fill:white;"/>
                </g>
            </g>
        </g>
    </g>
</svg>
